<svg width="44" height="37" viewBox="0 0 44 37" fill="none" xmlns="http://www.w3.org/2000/svg">
<path d="M22 0L44 16.4L42.3 18.75L38 15.5V36.05H6V15.5L1.7 18.75L0 16.4L22 0ZM13.5 18.15C13.5 19.75 14.3667 21.5667 16.1 23.6C17.8333 25.6333 19.8 27.6333 22 29.6C24.2 27.6333 26.1667 25.6333 27.9 23.6C29.6333 21.5667 30.5 19.75 30.5 18.15C30.5 16.85 30.075 15.775 29.225 14.925C28.375 14.075 27.3 13.65 26 13.65C25.2333 13.65 24.5 13.8417 23.8 14.225C23.1 14.6083 22.5 15.0667 22 15.6C21.5 15.0667 20.9 14.6083 20.2 14.225C19.5 13.8417 18.7667 13.65 18 13.65C16.7 13.65 15.625 14.075 14.775 14.925C13.925 15.775 13.5 16.85 13.5 18.15ZM35 33.05V13.45L22 3.75L9 13.45V33.05H35Z" fill="#C3D1B0"/>
</svg>
