<svg width="246" height="67" viewBox="0 0 246 67" fill="none" xmlns="http://www.w3.org/2000/svg">
<path d="M186.037 14H183V18H186.037V14Z" fill="#DBBCAD"/>
<path d="M192.037 9H189V18H192.037V9Z" fill="#C2D6C1"/>
<path d="M199.05 4H195V18H199.05V4Z" fill="#AFC7C2"/>
<path d="M205.133 1.55897e-05L201 0.0359497L201.16 18.0353L205.294 17.9993L205.133 1.55897e-05Z" fill="#EBAAAA"/>
<path d="M164.15 55V20H172.25V55H164.15ZM188.056 35.75H204.856V42.25H188.056V35.75ZM188.656 55H180.556V20H207.006V26.5H188.656V55ZM221.19 55V40.7L223.04 45.6L207.64 20H216.24L228.04 39.65H223.09L234.94 20H242.89L227.49 45.6L229.29 40.7V55H221.19Z" fill="#DBBCAD"/>
<path d="M4.15 55V20H21.25C25.65 20 28.95 20.8333 31.15 22.5C33.3833 24.1667 34.5 26.3667 34.5 29.1C34.5 30.9333 34.05 32.5333 33.15 33.9C32.25 35.2333 31.0167 36.2667 29.45 37C27.8833 37.7333 26.0833 38.1 24.05 38.1L25 36.05C27.2 36.05 29.15 36.4167 30.85 37.15C32.55 37.85 33.8667 38.9 34.8 40.3C35.7667 41.7 36.25 43.4167 36.25 45.45C36.25 48.45 35.0667 50.8 32.7 52.5C30.3333 54.1667 26.85 55 22.25 55H4.15ZM12.2 48.9H21.65C23.75 48.9 25.3333 48.5667 26.4 47.9C27.5 47.2 28.05 46.1 28.05 44.6C28.05 43.1333 27.5 42.05 26.4 41.35C25.3333 40.6167 23.75 40.25 21.65 40.25H11.6V34.35H20.25C22.2167 34.35 23.7167 34.0167 24.75 33.35C25.8167 32.65 26.35 31.6 26.35 30.2C26.35 28.8333 25.8167 27.8167 24.75 27.15C23.7167 26.45 22.2167 26.1 20.25 26.1H12.2V48.9ZM57.9324 55.6C52.9658 55.6 49.0824 54.2167 46.2824 51.45C43.4824 48.6833 42.0824 44.7333 42.0824 39.6V20H50.1824V39.3C50.1824 42.6333 50.8658 45.0333 52.2324 46.5C53.5991 47.9667 55.5158 48.7 57.9824 48.7C60.4491 48.7 62.3658 47.9667 63.7324 46.5C65.0991 45.0333 65.7824 42.6333 65.7824 39.3V20H73.7824V39.6C73.7824 44.7333 72.3824 48.6833 69.5824 51.45C66.7824 54.2167 62.8991 55.6 57.9324 55.6ZM81.7867 55V20H97.6867C101.487 20 104.837 20.7333 107.737 22.2C110.637 23.6333 112.903 25.65 114.537 28.25C116.17 30.85 116.987 33.9333 116.987 37.5C116.987 41.0333 116.17 44.1167 114.537 46.75C112.903 49.35 110.637 51.3833 107.737 52.85C104.837 54.2833 101.487 55 97.6867 55H81.7867ZM89.8867 48.35H97.2867C99.6201 48.35 101.637 47.9167 103.337 47.05C105.07 46.15 106.403 44.8833 107.337 43.25C108.303 41.6167 108.787 39.7 108.787 37.5C108.787 35.2667 108.303 33.35 107.337 31.75C106.403 30.1167 105.07 28.8667 103.337 28C101.637 27.1 99.6201 26.65 97.2867 26.65H89.8867V48.35ZM139.995 55.6C137.229 55.6 134.679 55.1667 132.345 54.3C130.045 53.4 128.029 52.1333 126.295 50.5C124.595 48.8667 123.262 46.95 122.295 44.75C121.362 42.55 120.895 40.1333 120.895 37.5C120.895 34.8667 121.362 32.45 122.295 30.25C123.262 28.05 124.612 26.1333 126.345 24.5C128.079 22.8667 130.112 21.6167 132.445 20.75C134.779 19.85 137.345 19.4 140.145 19.4C143.245 19.4 146.029 19.9167 148.495 20.95C150.995 21.9833 153.095 23.4833 154.795 25.45L149.595 30.25C148.329 28.9167 146.945 27.9333 145.445 27.3C143.945 26.6333 142.312 26.3 140.545 26.3C138.845 26.3 137.295 26.5667 135.895 27.1C134.495 27.6333 133.279 28.4 132.245 29.4C131.245 30.4 130.462 31.5833 129.895 32.95C129.362 34.3167 129.095 35.8333 129.095 37.5C129.095 39.1333 129.362 40.6333 129.895 42C130.462 43.3667 131.245 44.5667 132.245 45.6C133.279 46.6 134.479 47.3667 135.845 47.9C137.245 48.4333 138.779 48.7 140.445 48.7C142.045 48.7 143.595 48.45 145.095 47.95C146.629 47.4167 148.112 46.5333 149.545 45.3L154.145 51.15C152.245 52.5833 150.029 53.6833 147.495 54.45C144.995 55.2167 142.495 55.6 139.995 55.6ZM146.745 50.1V36.95H154.145V51.15L146.745 50.1Z" fill="#C2D6C1"/>
</svg>
