<svg width="20" height="20" viewBox="0 0 20 20" fill="none" xmlns="http://www.w3.org/2000/svg">
<path d="M10 0.5C11.3183 0.5 12.5461 0.74977 13.6885 1.24609C14.8407 1.74673 15.8462 2.42826 16.709 3.29102C17.5717 4.15377 18.2533 5.15934 18.7539 6.31152C19.2502 7.45385 19.5 8.68173 19.5 10C19.5 11.3007 19.2501 12.5246 18.7529 13.6768C18.2517 14.8382 17.5742 15.8486 16.7197 16.7109C15.8665 17.572 14.862 18.2524 13.7021 18.7529C12.5508 19.2498 11.3183 19.5 10 19.5C8.68174 19.5 7.44922 19.2498 6.29785 18.7529C5.13694 18.2519 4.13171 17.5751 3.27832 16.7217C2.42493 15.8683 1.74806 14.8631 1.24707 13.7021C0.750248 12.5508 0.5 11.3183 0.5 10C0.5 8.68174 0.750248 7.44922 1.24707 6.29785C1.74806 5.13694 2.42493 4.13171 3.27832 3.27832C4.13171 2.42493 5.13694 1.74806 6.29785 1.24707C7.44922 0.750248 8.68174 0.5 10 0.5ZM10.5 18.5176L11.0635 18.4463C13.0044 18.1992 14.6652 17.3915 16.0283 16.0283C17.3915 14.6652 18.1992 13.0044 18.4463 11.0635L18.5176 10.5H10.5V18.5176ZM8.93848 1.55371C6.80203 1.81856 5.01917 2.75602 3.6123 4.35742C2.20603 5.95828 1.5 7.84693 1.5 10C1.5 12.1531 2.20603 14.0417 3.6123 15.6426C5.01917 17.244 6.80203 18.1814 8.93848 18.4463L9.5 18.5156V1.48438L8.93848 1.55371ZM10.5 9.5H18.5225L18.4453 8.93262C18.181 6.99406 17.37 5.33879 16.0156 3.98438C14.6612 2.62996 13.0059 1.81904 11.0674 1.55469L10.5 1.47754V9.5Z" fill="#1F1F1F" stroke="#DBBCAD"/>
</svg>
