<svg width="22" height="16" viewBox="0 0 22 16" fill="none" xmlns="http://www.w3.org/2000/svg">
<path d="M16.5 0.5C17.3278 0.5 18.1389 0.595409 18.9336 0.786133C19.7267 0.976491 20.4881 1.26236 21.2188 1.64355L21.2305 1.64941L21.2432 1.65527C21.3344 1.69678 21.3883 1.74998 21.4248 1.81641C21.4772 1.91181 21.4999 2.00406 21.5 2.09961V14.1504C21.4999 14.3608 21.4262 14.4912 21.25 14.5996C21.0819 14.7029 20.9326 14.7121 20.7324 14.6074H20.7314C20.0829 14.2574 19.4033 13.9858 18.6934 13.793C17.9756 13.598 17.2442 13.5 16.5 13.5C15.4404 13.5 14.4143 13.6856 13.4248 14.0566C12.5616 14.3803 11.7528 14.8189 11 15.3711C10.2472 14.8189 9.43838 14.3803 8.5752 14.0566C7.58566 13.6856 6.55962 13.5 5.5 13.5C4.75579 13.5 4.02437 13.598 3.30664 13.793C2.68349 13.9622 2.08374 14.1921 1.50781 14.4824L1.26758 14.6074C1.06743 14.7121 0.918102 14.7029 0.75 14.5996C0.573801 14.4912 0.50009 14.3608 0.5 14.1504V2.09961C0.500062 2.00407 0.522821 1.91181 0.575195 1.81641C0.611731 1.74998 0.66556 1.69678 0.756836 1.65527L0.769531 1.64941L0.78125 1.64355C1.51187 1.26236 2.27334 0.976491 3.06641 0.786133C3.86109 0.595409 4.67219 0.5 5.5 0.5C6.42298 0.5 7.32497 0.619034 8.20703 0.857422C9.08748 1.09538 9.93362 1.45279 10.7461 1.93066L11 2.08008L11.2539 1.93066C12.0664 1.45279 12.9125 1.09538 13.793 0.857422C14.675 0.619033 15.577 0.5 16.5 0.5ZM16.5 9.5C16.9076 9.5 17.3064 9.53137 17.6963 9.59375C17.9682 9.63727 18.2359 9.68994 18.5 9.74805V10.2627C18.294 10.2063 18.0865 10.1594 17.8779 10.1211C17.4374 10.0402 16.9778 10 16.5 10C15.8269 10 15.1768 10.0803 14.5508 10.2412C14.1915 10.3336 13.8411 10.4525 13.5 10.5977V10.0391C13.922 9.87883 14.3509 9.75355 14.7871 9.66504C15.3269 9.55554 15.8975 9.5 16.5 9.5ZM16.5 6.75C16.9076 6.75 17.3064 6.78137 17.6963 6.84375C17.9682 6.88727 18.2359 6.93994 18.5 6.99805V7.5127C18.294 7.45628 18.0865 7.40941 17.8779 7.37109C17.4374 7.29019 16.9778 7.25 16.5 7.25C15.8245 7.25 15.172 7.33442 14.5439 7.50488C14.1869 7.6018 13.8395 7.72318 13.5 7.86426V7.28906C13.922 7.12883 14.3509 7.00355 14.7871 6.91504C15.3269 6.80554 15.8975 6.75 16.5 6.75ZM16.5 4C16.9076 4 17.3064 4.03137 17.6963 4.09375C17.9682 4.13727 18.2359 4.18994 18.5 4.24805V4.7627C18.294 4.70628 18.0865 4.65941 17.8779 4.62109C17.4374 4.54019 16.9778 4.5 16.5 4.5C15.8245 4.5 15.172 4.58442 14.5439 4.75488C14.1869 4.8518 13.8395 4.97318 13.5 5.11426V4.53906C13.922 4.37883 14.3509 4.25355 14.7871 4.16504C15.3269 4.05554 15.8975 4 16.5 4ZM10.5 2.91309L10.2529 2.76855C9.53004 2.3454 8.76213 2.02796 7.95117 1.81641C7.14377 1.60578 6.32641 1.5 5.5 1.5C4.8675 1.5 4.23944 1.56171 3.61621 1.68457C2.99111 1.80783 2.38666 1.99237 1.80469 2.23926L1.5 2.36914V13.2998L2.16211 13.0732C2.7219 12.8813 3.27563 12.7378 3.82324 12.6426C4.36915 12.5476 4.92794 12.5 5.5 12.5C6.24575 12.5 6.96985 12.5831 7.67285 12.749C8.37742 12.9153 9.08109 13.1655 9.78418 13.501L10.5 13.8428V2.91309ZM20.5 2.36914L20.1953 2.23926C19.6133 1.99237 19.0089 1.80783 18.3838 1.68457C17.7606 1.56171 17.1325 1.5 16.5 1.5C15.6736 1.5 14.8562 1.60578 14.0488 1.81641C13.2379 2.02796 12.47 2.3454 11.7471 2.76855L11.5 2.91309V13.8428L12.2158 13.501C12.9189 13.1655 13.6226 12.9153 14.3271 12.749C15.0301 12.5831 15.7542 12.5 16.5 12.5C17.0721 12.5 17.6309 12.5476 18.1768 12.6426C18.7244 12.7378 19.2781 12.8813 19.8379 13.0732L20.5 13.2998V2.36914Z" fill="#DBBCAD" stroke="#DBBCAD"/>
</svg>
