<svg width="16" height="10" viewBox="0 0 16 10" fill="none" xmlns="http://www.w3.org/2000/svg">
<path d="M5 0C3.67392 0 2.40215 0.526784 1.46447 1.46447C0.526784 2.40215 0 3.67392 0 5C0 6.32608 0.526784 7.59785 1.46447 8.53553C2.40215 9.47322 3.67392 10 5 10H11C12.3261 10 13.5979 9.47322 14.5355 8.53553C15.4732 7.59785 16 6.32608 16 5C16 3.67392 15.4732 2.40215 14.5355 1.46447C13.5979 0.526784 12.3261 0 11 0H5ZM11 9C9.93913 9 8.92172 8.57857 8.17157 7.82843C7.42143 7.07828 7 6.06087 7 5C7 3.93913 7.42143 2.92172 8.17157 2.17157C8.92172 1.42143 9.93913 1 11 1C12.0609 1 13.0783 1.42143 13.8284 2.17157C14.5786 2.92172 15 3.93913 15 5C15 6.06087 14.5786 7.07828 13.8284 7.82843C13.0783 8.57857 12.0609 9 11 9Z" fill="#DBBCAD"/>
</svg>
