<svg width="16" height="16" viewBox="0 0 16 16" fill="none" xmlns="http://www.w3.org/2000/svg">
<path d="M2.91895 5.49609C2.86855 1.70732 6.93856 -0.715792 10.2451 1.13477C13.5518 2.9854 13.6144 7.72182 10.3584 9.66016L9.41309 10.2236L10.459 10.5654C12.4026 11.2005 14.0727 12.5408 15.1592 14.4189L15.166 14.4307C15.1859 14.4634 15.1859 14.5044 15.166 14.5371C15.1248 14.6043 15.0261 14.6022 14.9883 14.5332V14.5322L14.9814 14.5205C13.4752 11.9177 10.8044 10.3555 7.84082 10.3555C4.8772 10.3555 2.20643 11.9177 0.700195 14.5205L0.693359 14.5332C0.674898 14.5669 0.638976 14.587 0.600586 14.5859C0.521921 14.5838 0.474861 14.4978 0.515625 14.4307H0.516602L0.522461 14.4189C1.60891 12.54 3.27914 11.1998 5.22266 10.5654L6.26953 10.2236L5.32324 9.66016C3.85243 8.78457 2.94182 7.20765 2.91895 5.49609ZM10.1992 1.34766C7.05428 -0.467965 3.1231 1.8012 3.12305 5.43262V5.43359C3.12594 7.95597 5.10666 10.0148 7.59766 10.1436L7.84082 10.1504C8.66872 10.1504 9.48219 9.93243 10.1992 9.51855C13.3442 7.7028 13.3442 3.16341 10.1992 1.34766Z" fill="#1D0B0E" stroke="#DBBCAD"/>
</svg>
